<?xml version="1.0" standalone="no"?>
<!DOCTYPE svg PUBLIC "-//W3C//DTD SVG 20010904//EN"
 "http://www.w3.org/TR/2001/REC-SVG-20010904/DTD/svg10.dtd">
<svg version="1.0" xmlns="http://www.w3.org/2000/svg"
 width="1280.000000pt" height="1280.000000pt" viewBox="0 0 1280.000000 1280.000000"
 preserveAspectRatio="xMidYMid meet">

<g transform="translate(0.000000,1280.000000) scale(0.100000,-0.100000)"
fill="#1d1d1d" stroke="none">
<path d="M584 12788 c-5 -7 -8 -49 -8 -93 0 -177 85 -333 232 -426 151 -96
374 -95 525 1 155 98 251 292 232 468 l-7 62 -44 0 c-38 0 -45 -3 -40 -17 22
-81 8 -200 -34 -284 -32 -62 -126 -151 -192 -182 -109 -52 -247 -52 -356 0
-73 34 -161 122 -195 195 -26 55 -49 168 -42 205 17 86 18 83 -25 83 -21 0
-42 -6 -46 -12z"/>
<path d="M2040 12790 c0 -12 17 -12 45 0 17 7 15 9 -12 9 -18 1 -33 -3 -33 -9z"/>
<path d="M2246 12740 c-72 -33 -133 -63 -138 -68 -12 -12 12 -74 26 -69 33 14
422 190 425 193 2 2 -38 4 -90 3 -93 0 -95 -1 -223 -59z"/>
<path d="M2760 12764 c-41 -20 -185 -85 -320 -146 -135 -60 -249 -114 -254
-118 -15 -14 14 -71 33 -65 9 2 174 76 366 163 281 128 350 163 350 178 0 16
-8 19 -50 21 -39 2 -66 -5 -125 -33z"/>
<path d="M3535 12664 c-49 -75 -91 -140 -93 -144 -2 -5 107 -82 243 -173 l245
-165 20 28 c11 15 20 30 20 33 0 2 -95 69 -211 147 -140 94 -209 147 -205 156
3 7 41 67 86 134 l80 120 -47 0 -48 0 -90 -136z"/>
<path d="M3758 12738 c-25 -35 -63 -91 -86 -124 l-41 -62 247 -167 247 -166
22 27 c12 15 19 32 17 36 -3 5 -100 72 -215 149 -139 92 -207 144 -203 152 4
7 35 53 69 102 33 50 65 96 69 103 5 9 -4 12 -38 12 -43 0 -45 -2 -88 -62z"/>
<path d="M3899 12694 c-39 -59 -67 -109 -62 -113 6 -3 117 -78 247 -166 l237
-160 19 25 c11 14 18 30 17 35 -2 6 -86 66 -188 135 -101 69 -195 133 -209
142 l-23 17 45 68 c24 37 53 80 62 96 l18 27 -46 0 -46 0 -71 -106z"/>
<path d="M4085 12715 c-51 -74 -57 -87 -44 -99 7 -8 118 -84 246 -170 l231
-156 22 31 c13 17 19 34 14 39 -5 4 -85 58 -179 121 -93 62 -187 125 -207 139
l-37 27 49 71 c28 38 50 73 50 76 0 3 -20 6 -43 6 -44 0 -44 0 -102 -85z"/>
<path d="M4267 12730 l-47 -69 168 -114 c230 -157 320 -217 325 -217 2 0 13
13 25 30 l22 29 -210 142 c-116 78 -213 145 -215 149 -2 4 11 30 30 58 19 28
35 54 35 57 0 3 -20 5 -44 5 -42 0 -44 -1 -89 -70z"/>
<path d="M4981 12685 c-50 -63 -91 -118 -91 -123 0 -9 608 -487 620 -487 9 0
490 605 490 617 0 4 -28 30 -62 57 -61 48 -65 50 -127 51 l-64 0 72 -56 c48
-37 70 -61 67 -71 -8 -19 -379 -492 -387 -493 -7 0 -493 381 -500 391 -2 4 35
57 84 118 l87 111 -49 0 -49 0 -91 -115z"/>
<path d="M6984 12788 c-5 -7 -8 -49 -8 -93 0 -177 85 -333 232 -426 151 -96
374 -95 525 1 155 98 251 292 232 468 l-7 62 -44 0 c-38 0 -45 -3 -40 -17 22
-81 8 -200 -34 -284 -32 -62 -126 -151 -192 -182 -109 -52 -247 -52 -356 0
-73 34 -161 122 -195 195 -26 55 -49 168 -42 205 17 86 18 83 -25 83 -21 0
-42 -6 -46 -12z"/>
<path d="M8440 12790 c0 -12 17 -12 45 0 17 7 15 9 -12 9 -18 1 -33 -3 -33 -9z"/>
<path d="M8645 12739 c-71 -33 -133 -63 -138 -68 -11 -11 13 -73 27 -68 33 14
422 190 425 193 2 2 -38 4 -90 3 -93 0 -95 -1 -224 -60z"/>
<path d="M9160 12764 c-41 -20 -185 -85 -320 -146 -135 -60 -249 -114 -254
-118 -15 -14 14 -71 33 -65 9 2 174 76 366 163 281 128 350 163 350 178 0 16
-8 19 -50 21 -39 2 -66 -5 -125 -33z"/>
<path d="M9935 12664 c-49 -75 -91 -140 -93 -144 -2 -5 107 -82 243 -173 l245
-165 20 28 c11 15 20 30 20 33 0 2 -95 69 -211 147 -140 94 -209 147 -205 156
3 7 41 67 86 134 l80 120 -47 0 -48 0 -90 -136z"/>
<path d="M10158 12738 c-25 -35 -63 -91 -86 -124 l-41 -62 247 -167 247 -166
22 27 c12 15 19 32 17 36 -3 5 -100 72 -215 149 -139 92 -207 144 -203 152 4
7 35 53 69 102 33 50 65 96 69 103 5 9 -4 12 -38 12 -43 0 -45 -2 -88 -62z"/>
<path d="M10299 12694 c-39 -59 -67 -109 -62 -113 6 -3 117 -78 247 -166 l237
-160 19 25 c11 14 18 30 17 35 -2 6 -86 66 -188 135 -101 69 -195 133 -209
142 l-23 17 45 68 c24 37 53 80 62 96 l18 27 -46 0 -46 0 -71 -106z"/>
<path d="M10485 12715 c-51 -74 -57 -87 -44 -99 7 -8 118 -84 246 -170 l231
-156 22 31 c13 17 19 34 14 39 -5 4 -85 58 -179 121 -93 62 -187 125 -207 139
l-37 27 49 71 c28 38 50 73 50 76 0 3 -20 6 -43 6 -44 0 -44 0 -102 -85z"/>
<path d="M10667 12730 l-47 -69 168 -114 c230 -157 320 -217 325 -217 2 0 13
13 25 30 l22 29 -210 142 c-116 78 -213 145 -215 149 -2 4 11 30 30 58 19 28
35 54 35 57 0 3 -20 5 -44 5 -42 0 -44 -1 -89 -70z"/>
<path d="M11381 12685 c-50 -63 -91 -118 -91 -123 0 -9 608 -487 620 -487 9 0
490 605 490 617 0 4 -28 30 -62 57 -61 48 -65 50 -127 51 l-64 0 72 -56 c46
-36 70 -61 67 -71 -7 -18 -379 -492 -387 -493 -7 0 -493 380 -500 391 -2 4 35
57 84 118 l87 111 -49 0 -49 0 -91 -115z"/>
<path d="M2626 12494 c-198 -90 -361 -166 -364 -169 -7 -6 19 -65 28 -65 7 0
720 319 728 326 6 5 -19 74 -26 73 -4 0 -169 -75 -366 -165z"/>
<path d="M9026 12494 c-198 -90 -361 -166 -364 -169 -7 -6 19 -65 28 -65 7 0
720 319 728 326 6 5 -19 74 -26 73 -4 0 -169 -75 -366 -165z"/>
<path d="M2700 12319 c-195 -89 -356 -162 -358 -164 -8 -7 12 -57 24 -62 11
-4 717 306 733 322 7 8 -21 65 -33 65 -6 -1 -171 -73 -366 -161z"/>
<path d="M9100 12319 c-195 -89 -356 -162 -358 -164 -8 -7 12 -57 24 -62 11
-4 717 306 733 322 7 8 -21 65 -33 65 -6 -1 -171 -73 -366 -161z"/>
<path d="M93 12137 l-93 -42 0 -42 0 -43 33 14 c17 7 69 30 114 51 l81 37 -13
31 c-7 17 -17 32 -22 33 -4 1 -50 -16 -100 -39z"/>
<path d="M6470 12126 c-63 -29 -223 -101 -355 -161 -132 -59 -244 -111 -248
-115 -10 -9 20 -73 32 -68 4 2 170 77 369 167 l360 163 -13 31 c-7 17 -17 32
-22 33 -4 2 -60 -21 -123 -50z"/>
<path d="M12528 11972 c-141 -65 -260 -120 -263 -124 -5 -5 20 -68 28 -68 1 0
115 51 252 113 l250 114 3 41 c2 23 0 42 -5 41 -4 0 -124 -53 -265 -117z"/>
<path d="M138 11947 l-138 -61 0 -43 0 -43 58 26 c31 14 98 44 147 66 50 22
93 43 97 46 3 4 -1 21 -10 39 l-17 32 -137 -62z"/>
<path d="M6310 11844 c-201 -91 -366 -166 -367 -168 -5 -5 22 -66 29 -66 10 0
721 320 730 329 3 3 -1 20 -10 38 l-17 32 -365 -165z"/>
<path d="M12565 11779 c-121 -55 -221 -102 -222 -103 -7 -6 23 -66 32 -65 5 0
102 42 215 93 l205 93 3 42 c2 22 0 41 -5 41 -4 -1 -107 -46 -228 -101z"/>
<path d="M178 11757 l-178 -81 0 -42 0 -43 53 23 c163 73 323 148 329 154 3 4
-1 21 -10 38 l-17 31 -177 -80z"/>
<path d="M6680 11803 c-41 -19 -205 -93 -365 -165 -159 -72 -291 -132 -293
-133 -2 -2 3 -19 12 -38 l14 -36 364 165 c199 91 366 168 370 172 3 4 -1 21
-10 38 l-17 32 -75 -35z"/>
<path d="M3060 11754 c-6 -15 -9 -32 -7 -39 3 -6 92 -38 198 -72 107 -34 278
-88 381 -121 l188 -60 10 36 c5 20 8 37 7 38 -2 2 -600 193 -744 238 -19 6
-25 2 -33 -20z"/>
<path d="M9460 11754 c-6 -15 -9 -32 -7 -39 3 -6 92 -38 198 -72 107 -34 278
-88 381 -121 l188 -60 10 36 c5 20 8 37 7 38 -2 2 -600 193 -744 238 -19 6
-25 2 -33 -20z"/>
<path d="M12610 11590 c-96 -44 -179 -81 -184 -83 -4 -1 -1 -19 7 -39 l16 -37
173 79 173 79 3 41 c2 22 0 40 -5 40 -4 0 -87 -36 -183 -80z"/>
<path d="M213 11563 l-213 -96 0 -42 0 -43 233 105 c127 58 233 107 235 108 6
5 -28 65 -36 65 -4 0 -103 -44 -219 -97z"/>
<path d="M6470 11499 c-195 -88 -359 -164 -363 -169 -5 -4 -1 -22 7 -39 l16
-31 53 24 c181 81 683 309 685 311 5 5 -28 65 -36 65 -4 0 -167 -73 -362 -161z"/>
<path d="M2046 11609 c-3 -8 -14 -72 -26 -144 -11 -71 -23 -143 -26 -158 -6
-28 -9 -25 -128 99 l-122 128 -29 -174 -29 -174 -121 128 c-111 116 -123 126
-128 105 -3 -13 -15 -85 -28 -159 -12 -74 -25 -140 -28 -146 -3 -7 -54 40
-121 111 -63 68 -117 124 -120 124 -7 1 -75 -408 -69 -413 2 -2 18 -7 35 -10
37 -8 33 -18 60 152 10 61 21 112 24 111 3 0 57 -56 120 -124 67 -72 118 -118
121 -111 3 6 16 76 29 156 13 80 26 151 29 157 4 8 51 -35 126 -114 l120 -126
27 162 c14 89 28 167 30 173 2 6 58 -46 123 -116 94 -99 121 -122 125 -109 4
10 17 86 30 168 13 83 25 152 27 154 2 3 44 -39 94 -92 50 -53 94 -97 99 -97
4 0 18 8 31 19 l23 18 -28 34 c-84 99 -266 280 -270 268z"/>
<path d="M8446 11609 c-3 -8 -14 -72 -26 -144 -11 -71 -23 -143 -26 -158 -6
-28 -9 -25 -128 99 l-122 128 -29 -174 -29 -174 -121 128 c-111 116 -123 126
-128 105 -3 -13 -15 -85 -28 -159 -12 -74 -25 -140 -28 -146 -3 -7 -54 40
-121 111 -63 68 -117 124 -120 124 -7 1 -75 -408 -69 -413 2 -2 18 -7 35 -10
37 -8 33 -18 60 152 10 61 21 112 24 111 3 0 57 -56 120 -124 67 -72 118 -118
121 -111 3 6 16 76 29 156 13 80 26 151 29 157 4 8 51 -35 126 -114 l120 -126
27 162 c14 89 28 167 30 173 2 6 58 -46 123 -116 107 -113 120 -124 126 -104
3 13 16 88 29 168 13 80 25 147 27 149 2 3 44 -39 94 -92 50 -53 94 -97 99
-97 4 0 18 8 31 19 l23 18 -28 34 c-84 99 -266 280 -270 268z"/>
<path d="M3001 11569 c-6 -18 -8 -36 -4 -40 14 -14 758 -247 765 -240 4 4 10
20 14 37 l6 30 -374 119 c-205 65 -378 120 -384 122 -7 2 -17 -10 -23 -28z"/>
<path d="M9401 11569 c-6 -18 -8 -36 -4 -40 14 -14 758 -247 765 -240 4 4 10
20 14 37 l6 30 -374 119 c-205 65 -378 120 -384 122 -7 2 -17 -10 -23 -28z"/>
<path d="M5275 11403 l-40 -168 -108 133 c-60 72 -112 132 -116 132 -4 0 -24
-72 -46 -160 -21 -88 -41 -160 -45 -160 -3 0 -53 58 -110 129 -58 71 -108 126
-111 123 -4 -4 -24 -78 -45 -164 -21 -87 -41 -158 -44 -158 -3 0 -52 59 -109
130 -58 72 -108 127 -111 123 -7 -8 -100 -374 -100 -392 0 -11 58 -26 67 -18
3 3 19 63 37 133 l32 128 108 -132 c60 -73 111 -130 115 -127 3 4 24 79 46
167 l41 161 109 -136 c61 -75 113 -133 116 -129 3 4 23 78 43 165 21 86 41
157 44 157 4 -1 54 -59 112 -130 57 -72 107 -127 111 -122 3 4 23 77 44 162
20 85 39 156 40 158 2 2 42 -44 90 -102 l87 -106 29 21 c25 18 27 23 17 38
-30 42 -253 311 -258 311 -3 0 -23 -75 -45 -167z"/>
<path d="M11675 11403 l-40 -168 -108 133 c-60 72 -112 132 -116 132 -4 0 -24
-72 -46 -160 -21 -88 -41 -160 -45 -160 -3 0 -53 58 -110 129 -58 71 -108 126
-111 123 -4 -4 -24 -78 -45 -164 -21 -87 -41 -158 -44 -158 -3 0 -52 59 -109
130 -58 72 -108 127 -111 123 -7 -8 -100 -374 -100 -392 0 -11 58 -26 67 -18
3 3 19 63 37 133 l32 128 108 -132 c60 -73 111 -130 115 -127 3 4 24 79 46
167 l41 161 109 -136 c61 -75 113 -133 116 -129 3 4 23 78 43 165 21 86 41
157 44 157 4 -1 54 -59 112 -130 57 -72 107 -127 111 -122 3 4 23 77 44 162
20 85 39 156 40 158 2 2 42 -44 90 -102 l87 -106 29 21 c25 18 27 23 17 38
-30 42 -253 311 -258 311 -3 0 -23 -75 -45 -167z"/>
<path d="M255 11375 l-250 -114 -3 -41 c-2 -22 0 -40 5 -40 4 0 128 54 275
121 l266 121 -13 31 c-7 17 -17 32 -22 33 -4 1 -120 -49 -258 -111z"/>
<path d="M6548 11326 c-197 -89 -360 -165 -364 -168 -9 -10 27 -70 39 -65 7 3
173 78 369 167 l356 161 -13 32 c-7 17 -17 32 -22 33 -4 1 -169 -71 -365 -160z"/>
<path d="M12645 11398 c-71 -33 -134 -63 -138 -68 -5 -4 -1 -22 7 -39 l16 -31
53 24 c28 13 89 40 135 61 l82 38 0 38 c0 25 -4 39 -12 38 -7 -1 -71 -28 -143
-61z"/>
<path d="M2943 11385 c-6 -19 -8 -37 -4 -40 12 -7 764 -245 766 -242 9 12 22
67 17 71 -6 4 -102 34 -572 183 -96 31 -180 57 -186 60 -6 2 -15 -12 -21 -32z"/>
<path d="M9343 11385 c-6 -19 -8 -37 -4 -40 12 -7 764 -245 766 -242 9 12 22
67 17 71 -6 4 -102 34 -572 183 -96 31 -180 57 -186 60 -6 2 -15 -12 -21 -32z"/>
<path d="M12692 11211 c-56 -27 -105 -51 -108 -54 -10 -9 27 -69 39 -64 7 3
49 22 95 42 l82 38 0 43 c0 24 -1 44 -2 43 -2 0 -49 -22 -106 -48z"/>
<path d="M2896 11231 c-2 -3 -7 -20 -10 -37 l-7 -31 148 -47 c287 -92 578
-184 600 -191 19 -5 25 -1 33 21 6 15 9 33 6 39 -2 6 -44 23 -92 38 -49 15
-221 69 -382 121 -161 51 -294 91 -296 87z"/>
<path d="M9296 11231 c-2 -3 -7 -20 -10 -37 l-7 -31 148 -47 c287 -92 578
-184 600 -191 19 -5 25 -1 33 21 6 15 9 33 6 39 -2 6 -44 23 -92 38 -49 15
-221 69 -382 121 -161 51 -294 91 -296 87z"/>
<path d="M2831 11018 c-6 -17 -9 -33 -7 -35 2 -2 73 -26 157 -53 85 -26 254
-80 377 -119 123 -39 227 -71 231 -71 4 0 12 16 18 35 l11 34 -62 20 c-33 11
-162 52 -286 91 -124 39 -266 85 -315 101 -50 16 -95 29 -102 29 -6 0 -16 -14
-22 -32z"/>
<path d="M9231 11018 c-6 -17 -9 -33 -7 -35 2 -2 73 -26 157 -53 85 -26 254
-80 377 -119 123 -39 227 -71 231 -71 4 0 12 16 18 35 l11 34 -62 20 c-33 11
-162 52 -286 91 -124 39 -266 85 -315 101 -50 16 -95 29 -102 29 -6 0 -16 -14
-22 -32z"/>
<path d="M0 10682 l0 -41 55 -6 c82 -11 181 -62 241 -127 84 -89 115 -164 115
-283 1 -170 -88 -309 -244 -380 -31 -15 -82 -29 -112 -32 l-55 -6 0 -38 c0
-38 1 -39 38 -39 168 1 367 150 427 320 108 305 -89 625 -409 665 l-56 7 0
-40z"/>
<path d="M6320 10714 c-55 -10 -148 -48 -198 -81 -71 -48 -128 -115 -168 -198
-95 -200 -53 -419 110 -573 93 -88 204 -132 336 -132 132 0 243 44 336 132
163 154 205 377 109 574 -60 123 -158 212 -283 255 -55 19 -191 32 -242 23z
m255 -118 c154 -76 236 -205 236 -371 1 -172 -87 -307 -247 -382 -53 -25 -70
-28 -164 -28 -97 0 -110 2 -173 32 -312 148 -322 580 -16 743 75 40 126 50
219 44 59 -3 90 -11 145 -38z"/>
<path d="M12720 10713 c-14 -2 -52 -13 -85 -25 -298 -104 -424 -465 -255 -729
83 -128 250 -228 383 -229 36 0 37 1 37 39 l0 38 -56 6 c-79 8 -174 56 -237
119 -201 201 -143 533 114 662 37 19 91 36 123 40 l56 7 0 40 c0 42 -6 44 -80
32z"/>
<path d="M1487 10013 c-30 -50 -326 -727 -320 -732 4 -4 20 -12 34 -18 l26
-11 163 361 c90 199 165 365 167 369 2 4 -10 14 -26 23 -34 17 -38 18 -44 8z"/>
<path d="M7887 10013 c-30 -50 -326 -727 -320 -732 4 -4 20 -12 34 -18 l26
-11 163 361 c90 199 165 365 167 369 2 4 -10 14 -26 23 -34 17 -38 18 -44 8z"/>
<path d="M1500 9583 c-89 -197 -164 -363 -167 -369 -4 -11 64 -41 71 -32 6 7
319 704 323 719 4 14 -32 39 -56 39 -5 0 -82 -161 -171 -357z"/>
<path d="M7900 9583 c-89 -197 -164 -363 -167 -369 -4 -11 64 -41 71 -32 6 7
319 704 323 719 4 14 -32 39 -56 39 -5 0 -82 -161 -171 -357z"/>
<path d="M4925 9832 c-55 -54 -184 -179 -287 -278 l-187 -180 24 -29 23 -30
103 98 c57 53 190 180 294 281 l190 184 -24 26 c-14 14 -27 26 -30 26 -3 0
-51 -44 -106 -98z"/>
<path d="M11325 9832 c-55 -54 -184 -179 -287 -278 l-187 -180 24 -29 23 -30
103 98 c57 53 190 180 294 281 l190 184 -24 26 c-14 14 -27 26 -30 26 -3 0
-51 -44 -106 -98z"/>
<path d="M1811 9808 c-243 -539 -301 -669 -301 -677 0 -8 60 -35 66 -29 2 3
286 629 314 694 l18 41 -34 17 -35 16 -28 -62z"/>
<path d="M8211 9808 c-243 -539 -301 -669 -301 -677 0 -8 60 -35 66 -29 2 3
286 629 314 694 l18 41 -34 17 -35 16 -28 -62z"/>
<path d="M3384 9835 c-267 -58 -441 -329 -380 -589 70 -296 371 -461 657 -361
111 40 219 142 276 261 32 67 37 87 41 175 4 76 0 116 -13 165 -47 173 -210
321 -389 353 -75 14 -115 13 -192 -4z m190 -80 c127 -27 224 -104 284 -223 36
-73 37 -80 37 -181 0 -98 -2 -111 -31 -171 -46 -95 -101 -153 -192 -197 -74
-37 -79 -38 -187 -38 -99 0 -116 3 -168 27 -120 56 -214 179 -238 311 -32 173
64 358 226 438 98 48 163 56 269 34z"/>
<path d="M9784 9835 c-267 -58 -441 -329 -380 -589 70 -296 371 -461 657 -361
111 40 219 142 276 261 32 67 37 87 41 175 4 76 0 116 -13 165 -47 173 -210
321 -389 353 -75 14 -115 13 -192 -4z m190 -80 c127 -27 224 -104 284 -223 36
-73 37 -80 37 -181 0 -98 -2 -111 -31 -171 -46 -95 -101 -153 -192 -197 -74
-37 -79 -38 -187 -38 -99 0 -116 3 -168 27 -120 56 -214 179 -238 311 -32 173
64 358 226 438 98 48 163 56 269 34z"/>
<path d="M4880 9524 c-157 -151 -287 -279 -289 -285 -2 -6 7 -21 20 -35 l22
-24 71 67 c39 38 171 165 294 283 l223 216 -28 26 -28 27 -285 -275z"/>
<path d="M11280 9524 c-157 -151 -287 -279 -289 -285 -2 -6 7 -21 20 -35 l22
-24 71 67 c39 38 171 165 294 283 l223 216 -28 26 -28 27 -285 -275z"/>
<path d="M1850 9433 c-89 -197 -163 -364 -164 -371 0 -7 14 -20 32 -27 32 -14
32 -14 46 18 7 18 80 178 161 357 81 179 149 330 152 337 4 9 -43 43 -60 43
-3 0 -78 -161 -167 -357z"/>
<path d="M8250 9433 c-89 -197 -163 -364 -164 -371 0 -7 14 -20 32 -27 32 -14
32 -14 46 18 7 18 80 178 161 357 81 179 149 330 152 337 4 9 -43 43 -60 43
-3 0 -78 -161 -167 -357z"/>
<path d="M2021 9349 c-89 -198 -160 -366 -158 -373 5 -12 55 -31 63 -24 7 7
324 716 324 725 0 9 -42 33 -59 33 -4 0 -80 -162 -170 -361z"/>
<path d="M8421 9349 c-89 -198 -160 -366 -158 -373 5 -12 55 -31 63 -24 7 7
324 716 324 725 0 9 -42 33 -59 33 -4 0 -80 -162 -170 -361z"/>
<path d="M5040 9414 c-140 -135 -271 -261 -290 -280 l-35 -34 27 -27 27 -26
166 159 c91 87 223 214 293 281 l127 121 -24 26 c-14 14 -27 26 -30 26 -3 0
-121 -111 -261 -246z"/>
<path d="M11440 9414 c-140 -135 -271 -261 -290 -280 l-35 -34 27 -27 27 -26
166 159 c91 87 223 214 293 281 l127 121 -24 26 c-14 14 -27 26 -30 26 -3 0
-121 -111 -261 -246z"/>
<path d="M5142 9248 l-292 -282 27 -28 27 -28 90 88 c50 48 180 173 289 278
108 105 197 196 197 201 0 5 -10 19 -23 31 l-23 21 -292 -281z"/>
<path d="M11542 9248 l-292 -282 27 -28 27 -28 90 88 c50 48 180 173 289 278
108 105 197 196 197 201 0 5 -10 19 -23 31 l-23 21 -292 -281z"/>
<path d="M5277 9114 c-158 -152 -287 -280 -287 -284 0 -3 11 -17 25 -30 l25
-24 108 105 c59 58 189 183 288 280 l182 174 -22 28 c-12 15 -24 27 -27 27 -3
0 -135 -124 -292 -276z"/>
<path d="M11677 9114 c-158 -152 -287 -280 -287 -284 0 -3 11 -17 25 -30 l25
-24 108 105 c59 58 189 183 288 280 l182 174 -22 28 c-12 15 -24 27 -27 27 -3
0 -135 -124 -292 -276z"/>
<path d="M6015 8844 c-132 -169 -241 -311 -242 -318 -3 -15 618 -501 626 -489
3 5 113 145 244 310 130 166 237 305 236 310 0 7 -602 484 -618 490 -3 2 -114
-135 -246 -303z m505 3 c135 -106 245 -199 245 -206 0 -16 -377 -500 -388
-498 -5 1 -120 90 -256 197 -245 192 -248 195 -232 217 54 74 377 482 381 482
3 1 115 -86 250 -192z"/>
<path d="M12415 8844 c-132 -169 -241 -311 -242 -318 -2 -9 592 -484 618 -494
5 -2 9 27 9 65 0 45 -3 63 -9 54 -7 -11 -13 -12 -23 -4 -7 5 -121 95 -253 198
-132 103 -241 189 -242 189 -1 1 82 107 184 236 102 129 191 244 199 254 13
19 16 17 73 -27 33 -26 62 -47 65 -47 3 0 6 20 6 45 0 43 -2 46 -69 100 -39
30 -71 55 -73 55 -2 0 -111 -138 -243 -306z"/>
<path d="M0 8991 l0 -49 182 -144 c100 -79 183 -148 185 -153 2 -6 -80 -116
-182 -245 l-185 -235 0 -57 c0 -32 2 -58 4 -58 8 0 476 598 475 607 0 4 -108
92 -240 195 l-239 188 0 -49z"/>
<path d="M2907 8363 c-3 -5 -91 -155 -196 -335 -105 -179 -193 -332 -196 -340
-5 -12 51 -56 59 -46 2 1 94 158 205 348 l202 345 -22 18 c-22 18 -45 22 -52
10z"/>
<path d="M9307 8363 c-3 -5 -91 -155 -196 -335 -105 -179 -193 -332 -196 -340
-5 -12 51 -56 59 -46 2 1 94 158 205 348 l202 345 -22 18 c-22 18 -45 22 -52
10z"/>
<path d="M3066 8258 c-7 -13 -91 -156 -186 -318 -95 -162 -181 -309 -191 -327
l-20 -32 32 -16 c21 -11 35 -13 41 -7 6 6 99 162 208 348 l198 338 -29 18
c-37 22 -36 23 -53 -4z"/>
<path d="M9466 8258 c-7 -13 -91 -156 -186 -318 -95 -162 -181 -309 -191 -327
l-20 -32 32 -16 c21 -11 35 -13 41 -7 6 6 99 162 208 348 l198 338 -29 18
c-37 22 -36 23 -53 -4z"/>
<path d="M3041 7839 c-112 -192 -202 -351 -200 -352 25 -18 61 -38 64 -35 8
10 395 676 400 689 4 10 -3 20 -22 29 -15 8 -30 15 -33 17 -3 1 -97 -155 -209
-348z"/>
<path d="M9441 7839 c-112 -192 -202 -351 -200 -352 25 -18 61 -38 64 -35 8
10 395 676 400 689 4 10 -3 20 -22 29 -15 8 -30 15 -33 17 -3 1 -97 -155 -209
-348z"/>
<path d="M909 8049 c-90 -61 -167 -114 -171 -118 -4 -3 3 -19 15 -35 l23 -29
112 77 112 77 -1 -58 c0 -32 -4 -111 -7 -176 -4 -64 -6 -117 -4 -117 1 0 66
43 144 95 78 52 143 93 144 92 1 -1 -2 -76 -7 -166 -6 -89 -9 -167 -7 -172 2
-5 68 34 147 87 l143 96 -6 -139 c-4 -76 -9 -155 -13 -177 -4 -31 -2 -37 8
-30 8 4 74 48 147 97 74 49 135 87 136 85 2 -2 0 -61 -5 -133 -4 -71 -5 -133
-3 -137 3 -4 20 -8 38 -8 l33 0 7 148 c3 81 9 178 13 216 l6 68 -134 -89 c-74
-49 -140 -93 -148 -98 -11 -6 -12 20 -6 164 4 94 4 171 1 171 -4 0 -68 -41
-141 -92 -74 -50 -137 -90 -139 -87 -3 2 -1 78 5 168 5 91 7 166 5 168 -2 3
-66 -37 -141 -87 -75 -50 -139 -89 -142 -86 -3 3 -1 79 3 170 5 92 6 166 3
166 -3 0 -80 -50 -170 -111z"/>
<path d="M7309 8049 c-90 -61 -167 -114 -171 -118 -4 -3 3 -19 15 -35 l23 -29
112 77 112 77 -1 -58 c0 -32 -4 -111 -7 -176 -4 -64 -6 -117 -4 -117 1 0 66
43 144 95 78 52 143 93 144 92 1 -1 -2 -76 -7 -166 -6 -89 -9 -167 -7 -172 2
-5 66 33 143 85 126 85 140 92 143 73 2 -12 -1 -89 -6 -172 -6 -82 -9 -151 -8
-152 1 -1 66 41 145 93 79 53 144 94 145 92 2 -2 0 -61 -5 -133 -4 -71 -5
-133 -3 -137 3 -4 20 -8 38 -8 l33 0 7 148 c3 81 9 178 13 216 l6 68 -134 -89
c-74 -49 -140 -93 -148 -98 -11 -6 -12 20 -6 164 4 94 4 171 1 171 -4 0 -68
-41 -141 -92 -74 -50 -137 -90 -139 -87 -3 2 -1 78 5 168 5 91 7 166 5 168 -2
3 -66 -37 -141 -87 -75 -50 -139 -89 -142 -86 -3 3 -1 79 3 170 5 92 6 166 3
166 -3 0 -80 -50 -170 -111z"/>
<path d="M3403 8078 c-4 -7 -96 -164 -204 -348 l-197 -335 30 -19 c20 -13 32
-16 40 -8 6 6 99 163 208 349 l198 338 -26 17 c-32 21 -38 22 -49 6z"/>
<path d="M9803 8078 c-4 -7 -96 -164 -204 -348 l-197 -335 30 -19 c20 -13 32
-16 40 -8 6 6 99 163 208 349 l198 338 -26 17 c-32 21 -38 22 -49 6z"/>
<path d="M3371 7649 c-112 -192 -202 -351 -200 -352 25 -18 61 -38 63 -35 8 9
397 678 401 690 4 9 -5 20 -22 28 -15 8 -30 16 -33 17 -3 1 -97 -155 -209
-348z"/>
<path d="M9771 7649 c-112 -192 -202 -351 -200 -352 25 -18 61 -38 63 -35 8 9
397 678 401 690 4 9 -5 20 -22 28 -15 8 -30 16 -33 17 -3 1 -97 -155 -209
-348z"/>
<path d="M4203 7666 c-57 -96 -103 -178 -103 -183 0 -5 13 -16 29 -26 l28 -17
67 115 c37 63 71 115 74 115 4 0 25 -44 46 -98 22 -53 52 -124 66 -157 l26
-59 84 139 c45 77 86 144 90 148 4 4 35 -61 70 -145 35 -84 66 -156 69 -160 3
-4 44 58 91 138 47 79 88 144 91 144 3 0 34 -70 68 -155 35 -85 66 -155 70
-155 3 0 44 66 90 145 47 80 88 142 91 138 4 -5 28 -61 55 -125 26 -65 51
-118 56 -118 25 0 59 25 54 39 -25 73 -151 371 -157 371 -3 0 -43 -63 -88
-140 -45 -77 -86 -140 -90 -140 -4 0 -35 70 -70 155 -34 85 -66 153 -70 150
-4 -2 -45 -68 -90 -146 -45 -77 -86 -137 -90 -132 -4 4 -31 67 -60 138 -29 72
-57 140 -64 152 -10 19 -18 9 -96 -123 -47 -79 -88 -144 -91 -144 -4 0 -35 70
-70 155 -35 85 -66 155 -69 155 -3 0 -51 -79 -107 -174z"/>
<path d="M10603 7666 c-57 -96 -103 -178 -103 -183 0 -5 13 -16 29 -26 l28
-17 67 115 c37 63 71 115 74 115 4 0 25 -44 46 -98 22 -53 52 -124 66 -157
l26 -59 84 139 c45 77 86 144 90 148 4 4 35 -61 70 -145 35 -84 66 -156 69
-160 3 -4 44 58 91 138 47 79 88 144 91 144 3 0 34 -70 68 -155 35 -85 66
-155 70 -155 3 0 44 66 90 145 47 80 88 142 91 138 4 -5 28 -61 55 -125 26
-65 51 -118 56 -118 25 0 59 25 54 39 -25 73 -151 371 -157 371 -3 0 -43 -63
-88 -140 -45 -77 -86 -140 -90 -140 -4 0 -35 70 -70 155 -34 85 -66 153 -70
150 -4 -2 -45 -68 -90 -146 -45 -77 -86 -137 -90 -132 -4 4 -31 67 -60 138
-29 72 -57 140 -64 152 -10 19 -18 9 -96 -123 -47 -79 -88 -144 -91 -144 -4 0
-35 70 -70 155 -35 85 -66 155 -69 155 -3 0 -51 -79 -107 -174z"/>
<path d="M171 7747 c-11 -13 -21 -27 -20 -33 0 -5 85 -83 190 -173 104 -90
189 -166 189 -170 0 -3 -74 -91 -165 -194 -91 -104 -165 -192 -165 -196 0 -4
11 -18 25 -31 l25 -23 38 44 c264 302 352 405 350 411 -3 7 -418 371 -436 382
-5 3 -19 -5 -31 -17z"/>
<path d="M6571 7747 c-11 -13 -21 -27 -20 -33 0 -5 85 -83 190 -173 104 -90
189 -166 189 -170 0 -3 -74 -91 -165 -194 -91 -104 -165 -192 -165 -196 0 -4
11 -18 25 -31 l25 -23 38 44 c264 302 352 405 350 411 -3 7 -418 371 -436 382
-5 3 -19 -5 -31 -17z"/>
<path d="M6371 7736 c-13 -14 -22 -29 -20 -34 2 -5 88 -83 192 -172 103 -90
187 -166 187 -170 0 -4 -74 -92 -165 -196 -91 -104 -165 -191 -165 -195 0 -3
11 -16 25 -29 22 -21 27 -22 39 -9 69 72 376 433 374 439 -2 6 -374 332 -429
377 -13 11 -20 8 -38 -11z"/>
<path d="M12772 7737 c-28 -30 -28 -41 3 -61 l25 -16 0 50 c0 27 -1 50 -3 50
-2 0 -13 -10 -25 -23z"/>
<path d="M0 7702 l0 -49 165 -143 c91 -79 165 -146 165 -150 0 -4 -74 -92
-165 -196 -91 -104 -165 -191 -165 -195 0 -3 11 -16 25 -29 22 -21 27 -22 39
-9 69 72 376 433 374 439 -3 8 -408 363 -427 375 -7 4 -11 -11 -11 -43z"/>
<path d="M6169 7719 l-23 -32 26 -21 c96 -79 358 -312 358 -319 0 -7 -213
-256 -308 -359 l-26 -28 24 -25 c13 -14 27 -25 31 -25 9 0 389 437 388 447 0
7 -303 274 -414 366 l-33 27 -23 -31z"/>
<path d="M12569 7719 c-18 -26 -19 -33 -8 -43 8 -7 65 -57 127 -110 l112 -98
-1 54 0 53 -71 60 c-38 33 -85 72 -103 88 l-33 27 -23 -31z"/>
<path d="M5969 7704 l-24 -26 30 -25 c17 -14 105 -91 197 -172 l168 -145 -29
-31 c-15 -16 -92 -104 -170 -193 l-143 -164 23 -24 c12 -13 26 -24 31 -24 8 0
381 424 386 439 3 9 -426 391 -438 391 -4 0 -17 -12 -31 -26z"/>
<path d="M12369 7704 l-24 -26 30 -25 c17 -14 105 -91 197 -172 l168 -145 -29
-31 c-15 -16 -92 -104 -170 -193 l-143 -164 23 -24 c12 -13 26 -24 30 -24 5 0
85 88 179 195 170 194 170 194 170 243 l0 48 -194 169 c-107 93 -199 171 -204
173 -4 1 -19 -9 -33 -24z"/>
<path d="M5772 7697 c-12 -13 -22 -26 -22 -28 0 -3 88 -82 195 -174 169 -147
192 -171 181 -185 -8 -8 -84 -96 -170 -194 l-156 -180 27 -28 c15 -15 30 -25
34 -21 59 64 379 438 379 444 0 8 -424 382 -438 387 -5 1 -18 -8 -30 -21z"/>
<path d="M12172 7697 c-12 -13 -22 -26 -22 -28 0 -3 88 -82 195 -174 169 -147
192 -171 181 -185 -8 -8 -84 -96 -170 -194 l-156 -180 27 -28 c15 -15 30 -25
34 -21 59 64 379 438 379 444 0 8 -424 382 -438 387 -5 1 -18 -8 -30 -21z"/>
<path d="M1 7518 c0 -53 0 -53 65 -107 35 -30 64 -59 64 -64 0 -5 -29 -42 -66
-82 l-65 -73 3 -57 3 -56 117 135 c65 74 118 137 118 140 0 6 -20 25 -157 145
l-83 73 1 -54z"/>
<path d="M0 7340 l0 -44 22 22 22 22 -22 22 -22 22 0 -44z"/>
<path d="M12785 7176 c-5 -8 -50 -60 -99 -116 l-89 -101 27 -27 27 -27 50 55
c97 107 100 112 97 174 -2 41 -6 53 -13 42z"/>
<path d="M975 6778 c-84 -16 -190 -73 -255 -138 -173 -173 -193 -451 -45 -648
227 -302 696 -245 850 102 159 360 -161 758 -550 684z m178 -83 c89 -19 156
-56 218 -122 155 -164 152 -412 -8 -572 -166 -165 -419 -166 -584 -2 -164 165
-162 431 5 590 63 59 118 88 200 106 79 17 88 17 169 0z"/>
<path d="M5135 6483 c-132 -169 -241 -311 -243 -317 -2 -11 602 -491 618 -491
13 0 490 608 487 620 -3 8 -617 497 -621 494 -1 0 -109 -138 -241 -306z m548
-33 c136 -106 206 -168 203 -177 -7 -18 -379 -492 -387 -493 -7 0 -499 385
-502 393 -2 4 110 148 321 415 l74 93 41 -34 c23 -18 136 -107 250 -197z"/>
<path d="M7375 6778 c-84 -16 -190 -73 -255 -138 -173 -173 -193 -451 -45
-648 227 -302 696 -245 850 102 159 360 -161 758 -550 684z m178 -83 c89 -19
156 -56 218 -122 155 -164 152 -412 -8 -572 -166 -165 -419 -166 -584 -2 -164
165 -162 431 5 590 63 59 118 88 200 106 79 17 88 17 169 0z"/>
<path d="M11535 6483 c-132 -169 -241 -311 -243 -317 -2 -11 602 -491 618
-491 13 0 490 608 487 620 -3 8 -617 497 -621 494 -1 0 -109 -138 -241 -306z
m548 -33 c136 -107 206 -168 203 -177 -7 -18 -379 -492 -387 -493 -7 0 -499
385 -502 393 -2 4 110 148 321 415 l74 93 41 -34 c23 -18 136 -107 250 -197z"/>
<path d="M2380 6609 c-195 -89 -357 -163 -359 -165 -7 -6 21 -64 31 -64 10 0
719 318 727 326 7 7 -22 64 -33 64 -6 0 -171 -73 -366 -161z"/>
<path d="M8780 6609 c-195 -89 -357 -163 -359 -165 -7 -6 21 -64 31 -64 10 0
719 318 727 326 7 7 -22 64 -33 64 -6 0 -171 -73 -366 -161z"/>
<path d="M4386 6508 c-124 -184 -162 -246 -153 -254 14 -14 473 -324 479 -324
2 0 14 13 26 30 l22 29 -210 142 c-116 78 -213 145 -215 149 -2 4 58 100 135
213 77 113 140 210 140 215 0 9 -43 42 -54 42 -3 0 -79 -109 -170 -242z"/>
<path d="M10786 6508 c-124 -184 -162 -246 -153 -254 14 -14 473 -324 479
-324 2 0 14 13 26 30 l22 29 -210 142 c-116 78 -213 145 -215 149 -2 4 58 100
135 213 77 113 140 210 140 215 0 9 -43 42 -54 42 -3 0 -79 -109 -170 -242z"/>
<path d="M4348 6702 c-8 -9 -84 -120 -168 -245 -130 -194 -151 -230 -139 -241
8 -8 118 -84 246 -170 l231 -156 22 31 c13 17 19 34 14 39 -5 4 -85 58 -179
121 -93 62 -186 124 -206 139 l-37 26 135 200 c74 109 138 206 143 215 7 12 2
21 -19 37 -27 20 -30 20 -43 4z"/>
<path d="M10748 6702 c-8 -9 -84 -120 -168 -245 -130 -194 -151 -230 -139
-241 8 -8 118 -84 246 -170 l231 -156 22 31 c13 17 19 34 14 39 -5 4 -85 58
-179 121 -93 62 -186 124 -206 139 l-37 26 135 200 c74 109 138 206 143 215 7
12 2 21 -19 37 -27 20 -30 20 -43 4z"/>
<path d="M4067 6543 c-190 -278 -239 -356 -230 -362 6 -3 117 -78 247 -166
l237 -160 19 25 c11 14 18 30 17 35 -2 6 -86 66 -188 135 -101 69 -196 133
-209 142 l-24 18 142 210 c78 116 142 214 142 218 0 4 -13 15 -29 25 l-29 17
-95 -137z"/>
<path d="M10467 6543 c-190 -278 -239 -356 -230 -362 6 -3 117 -78 247 -166
l237 -160 19 25 c11 14 18 30 17 35 -2 6 -86 66 -188 135 -101 69 -196 133
-209 142 l-24 18 142 210 c78 116 142 214 142 218 0 4 -13 15 -29 25 l-29 17
-95 -137z"/>
<path d="M3889 6533 c-40 -60 -114 -169 -166 -244 l-93 -137 247 -167 248
-166 22 27 c12 15 19 32 17 36 -3 5 -100 72 -216 149 l-209 140 17 27 c10 15
75 112 146 216 l128 190 -27 18 c-16 10 -31 18 -35 18 -4 0 -40 -48 -79 -107z"/>
<path d="M10289 6533 c-40 -60 -114 -169 -166 -244 l-93 -137 247 -167 248
-166 22 27 c12 15 19 32 17 36 -3 5 -100 72 -216 149 l-209 140 17 27 c10 15
75 112 146 216 l128 190 -27 18 c-16 10 -31 18 -35 18 -4 0 -40 -48 -79 -107z"/>
<path d="M3707 6518 c-158 -229 -268 -401 -260 -409 4 -4 115 -80 246 -167
l237 -160 20 28 c11 15 20 30 20 33 0 2 -94 68 -210 146 -115 78 -210 145
-210 150 0 4 63 101 140 215 77 115 140 210 140 212 0 1 -13 12 -29 23 l-29
21 -65 -92z"/>
<path d="M10107 6518 c-158 -229 -268 -401 -260 -409 4 -4 115 -80 246 -167
l237 -160 20 28 c11 15 20 30 20 33 0 2 -94 68 -210 146 -115 78 -210 145
-210 150 0 4 63 101 140 215 77 115 140 210 140 212 0 1 -13 12 -29 23 l-29
21 -65 -92z"/>
<path d="M2465 6439 c-192 -88 -353 -163 -357 -167 -12 -12 12 -74 26 -69 22
10 652 295 689 313 20 10 37 21 37 25 0 18 -24 59 -34 58 -6 0 -168 -72 -361
-160z"/>
<path d="M8865 6439 c-192 -88 -353 -163 -357 -167 -12 -12 12 -74 26 -69 22
10 652 295 689 313 20 10 37 21 37 25 0 18 -24 59 -34 58 -6 0 -168 -72 -361
-160z"/>
<path d="M2800 6381 c-58 -26 -217 -98 -355 -160 -137 -62 -254 -117 -259
-121 -8 -8 10 -70 21 -70 10 0 718 322 727 330 9 9 -11 70 -23 70 -3 -1 -53
-23 -111 -49z"/>
<path d="M9200 6381 c-58 -26 -217 -98 -355 -160 -137 -62 -254 -117 -259
-121 -8 -8 10 -70 21 -70 10 0 718 322 727 330 9 9 -11 70 -23 70 -3 -1 -53
-23 -111 -49z"/>
<path d="M2626 6094 c-198 -90 -361 -166 -364 -169 -7 -6 19 -65 28 -65 7 0
720 319 728 326 6 5 -19 74 -26 73 -4 0 -169 -75 -366 -165z"/>
<path d="M9026 6094 c-198 -90 -361 -166 -364 -169 -7 -6 19 -65 28 -65 7 0
720 319 728 326 6 5 -19 74 -26 73 -4 0 -169 -75 -366 -165z"/>
<path d="M2700 5919 c-195 -89 -356 -163 -358 -164 -8 -7 12 -57 24 -62 11 -4
717 306 733 322 7 8 -21 65 -33 65 -6 0 -171 -73 -366 -161z"/>
<path d="M9100 5919 c-195 -89 -356 -163 -358 -164 -8 -7 12 -57 24 -62 11 -4
717 306 733 322 7 8 -21 65 -33 65 -6 0 -171 -73 -366 -161z"/>
<path d="M93 5737 l-93 -42 0 -42 0 -43 33 14 c17 7 69 30 114 51 l81 37 -13
31 c-7 17 -17 32 -22 33 -4 1 -50 -16 -100 -39z"/>
<path d="M6470 5726 c-63 -29 -223 -101 -355 -161 -132 -59 -244 -111 -248
-115 -10 -9 20 -73 32 -68 4 2 170 77 369 167 l360 163 -13 31 c-7 17 -17 32
-22 33 -4 2 -60 -21 -123 -50z"/>
<path d="M12528 5572 c-141 -65 -260 -120 -263 -124 -5 -5 20 -68 28 -68 1 0
115 51 252 113 l250 114 3 41 c2 23 0 42 -5 41 -4 0 -124 -53 -265 -117z"/>
<path d="M138 5547 l-138 -61 0 -43 0 -43 58 26 c31 14 98 44 147 66 50 22 93
43 97 46 3 4 -1 21 -10 39 l-17 32 -137 -62z"/>
<path d="M6310 5444 c-201 -91 -366 -166 -367 -168 -5 -5 22 -66 29 -66 10 0
721 320 730 329 3 3 -1 20 -10 38 l-17 32 -365 -165z"/>
<path d="M12565 5379 c-121 -55 -221 -102 -222 -103 -7 -6 23 -66 32 -65 5 0
102 42 215 93 l205 93 3 42 c2 22 0 41 -5 41 -4 -1 -107 -46 -228 -101z"/>
<path d="M178 5357 l-178 -81 0 -42 0 -43 53 23 c163 73 323 148 329 154 3 4
-1 21 -10 38 l-17 31 -177 -80z"/>
<path d="M6680 5403 c-41 -19 -205 -93 -365 -165 -159 -72 -291 -132 -293
-133 -2 -2 3 -19 12 -38 l14 -36 364 165 c199 91 366 168 370 172 3 4 -1 21
-10 38 l-17 32 -75 -35z"/>
<path d="M3060 5354 c-6 -15 -9 -32 -7 -39 3 -6 92 -38 198 -72 107 -34 278
-88 381 -121 l188 -60 10 36 c5 20 8 37 7 38 -2 2 -600 193 -744 238 -19 6
-25 2 -33 -20z"/>
<path d="M9460 5354 c-6 -15 -9 -32 -7 -39 3 -6 92 -38 198 -72 107 -34 278
-88 381 -121 l188 -60 10 36 c5 20 8 37 7 38 -2 2 -600 193 -744 238 -19 6
-25 2 -33 -20z"/>
<path d="M12610 5190 c-96 -44 -179 -81 -184 -83 -4 -1 -1 -19 7 -39 l16 -37
173 79 173 79 3 41 c2 22 0 40 -5 40 -4 0 -87 -36 -183 -80z"/>
<path d="M213 5163 l-213 -96 0 -42 0 -43 233 105 c127 58 233 107 235 108 6
5 -28 65 -36 65 -4 0 -103 -44 -219 -97z"/>
<path d="M6470 5099 c-195 -88 -359 -164 -363 -169 -5 -4 -1 -22 7 -39 l16
-31 53 24 c181 81 683 309 685 311 5 5 -28 65 -36 65 -4 0 -167 -73 -362 -161z"/>
<path d="M2046 5209 c-3 -8 -14 -72 -26 -144 -11 -71 -23 -143 -26 -158 -6
-28 -9 -25 -128 99 l-122 128 -29 -174 -29 -174 -121 128 c-111 116 -123 126
-128 105 -3 -13 -15 -85 -28 -159 -12 -74 -25 -140 -28 -146 -3 -7 -54 40
-121 111 -63 68 -117 124 -120 124 -7 1 -75 -408 -69 -413 2 -2 18 -7 35 -10
37 -8 33 -18 60 152 10 61 21 112 24 111 3 0 57 -56 120 -124 67 -72 118 -118
121 -111 3 6 16 76 29 156 13 80 26 151 29 157 4 8 51 -35 126 -114 l120 -126
27 162 c14 89 28 167 30 173 2 6 58 -46 123 -116 94 -99 121 -122 125 -109 4
10 17 86 30 168 13 83 25 152 27 154 2 3 44 -39 94 -92 50 -53 94 -97 99 -97
4 0 18 8 31 19 l23 18 -28 34 c-84 99 -266 280 -270 268z"/>
<path d="M8446 5209 c-3 -8 -14 -72 -26 -144 -11 -71 -23 -143 -26 -158 -6
-28 -9 -25 -128 99 l-122 128 -29 -174 -29 -174 -121 128 c-111 116 -123 126
-128 105 -3 -13 -15 -85 -28 -159 -12 -74 -25 -140 -28 -146 -3 -7 -54 40
-121 111 -63 68 -117 124 -120 124 -7 1 -75 -408 -69 -413 2 -2 18 -7 35 -10
37 -8 33 -18 60 152 10 61 21 112 24 111 3 0 57 -56 120 -124 67 -72 118 -118
121 -111 3 6 16 76 29 156 13 80 26 151 29 157 4 8 51 -35 126 -114 l120 -126
27 162 c14 89 28 167 30 173 2 6 58 -46 123 -116 107 -113 120 -124 126 -104
3 13 16 88 29 168 13 80 25 147 27 149 2 3 44 -39 94 -92 50 -53 94 -97 99
-97 4 0 18 8 31 19 l23 18 -28 34 c-84 99 -266 280 -270 268z"/>
<path d="M3001 5169 c-6 -18 -8 -36 -4 -40 14 -14 758 -247 765 -240 4 4 10
20 14 37 l6 30 -374 119 c-205 65 -378 120 -384 122 -7 2 -17 -10 -23 -28z"/>
<path d="M9401 5169 c-6 -18 -8 -36 -4 -40 14 -14 758 -247 765 -240 4 4 10
20 14 37 l6 30 -374 119 c-205 65 -378 120 -384 122 -7 2 -17 -10 -23 -28z"/>
<path d="M5275 5003 l-40 -168 -108 133 c-60 72 -112 132 -116 132 -4 0 -24
-72 -46 -160 -21 -88 -41 -160 -45 -160 -3 0 -53 58 -110 129 -58 71 -108 126
-111 123 -4 -4 -24 -78 -45 -164 -21 -87 -41 -158 -44 -158 -3 0 -52 59 -109
130 -58 72 -108 127 -111 123 -7 -8 -100 -374 -100 -392 0 -11 58 -26 67 -18
3 3 19 63 37 133 l32 128 108 -132 c60 -73 111 -130 115 -127 3 4 24 79 46
167 l41 161 109 -136 c61 -75 113 -133 116 -129 3 4 23 78 43 165 21 86 41
157 44 157 4 -1 54 -59 112 -130 57 -72 107 -127 111 -122 3 4 23 77 44 162
20 85 39 156 40 158 2 2 42 -44 90 -102 l87 -106 29 21 c25 18 27 23 17 38
-30 42 -253 311 -258 311 -3 0 -23 -75 -45 -167z"/>
<path d="M11675 5003 l-40 -168 -108 133 c-60 72 -112 132 -116 132 -4 0 -24
-72 -46 -160 -21 -88 -41 -160 -45 -160 -3 0 -53 58 -110 129 -58 71 -108 126
-111 123 -4 -4 -24 -78 -45 -164 -21 -87 -41 -158 -44 -158 -3 0 -52 59 -109
130 -58 72 -108 127 -111 123 -7 -8 -100 -374 -100 -392 0 -11 58 -26 67 -18
3 3 19 63 37 133 l32 128 108 -132 c60 -73 111 -130 115 -127 3 4 24 79 46
167 l41 161 109 -136 c61 -75 113 -133 116 -129 3 4 23 78 43 165 21 86 41
157 44 157 4 -1 54 -59 112 -130 57 -72 107 -127 111 -122 3 4 23 77 44 162
20 85 39 156 40 158 2 2 42 -44 90 -102 l87 -106 29 21 c25 18 27 23 17 38
-30 42 -253 311 -258 311 -3 0 -23 -75 -45 -167z"/>
<path d="M255 4975 l-250 -114 -3 -41 c-2 -22 0 -40 5 -40 4 0 128 54 275 121
l266 121 -13 31 c-7 17 -17 32 -22 33 -4 1 -120 -49 -258 -111z"/>
<path d="M6548 4926 c-197 -89 -360 -165 -364 -168 -9 -10 27 -70 39 -65 7 3
173 78 369 167 l356 161 -13 32 c-7 17 -17 32 -22 33 -4 1 -169 -71 -365 -160z"/>
<path d="M12645 4998 c-71 -33 -134 -63 -138 -68 -5 -4 -1 -22 7 -39 l16 -31
53 24 c28 13 89 40 135 61 l82 38 0 38 c0 25 -4 39 -12 38 -7 -1 -71 -28 -143
-61z"/>
<path d="M2943 4985 c-6 -19 -8 -37 -4 -40 12 -7 764 -245 766 -242 9 12 22
67 17 71 -6 4 -102 34 -572 183 -96 31 -180 57 -186 60 -6 2 -15 -12 -21 -32z"/>
<path d="M9343 4985 c-6 -19 -8 -37 -4 -40 12 -7 764 -245 766 -242 9 12 22
67 17 71 -6 4 -102 34 -572 183 -96 31 -180 57 -186 60 -6 2 -15 -12 -21 -32z"/>
<path d="M12692 4811 c-56 -27 -105 -51 -108 -54 -10 -9 27 -69 39 -64 7 3 49
22 95 42 l82 38 0 43 c0 24 -1 44 -2 43 -2 0 -49 -22 -106 -48z"/>
<path d="M2896 4831 c-2 -3 -7 -20 -10 -37 l-7 -31 148 -47 c287 -92 578 -184
600 -191 19 -5 25 -1 33 21 6 15 9 33 6 39 -2 6 -44 23 -92 38 -49 15 -221 69
-382 121 -161 51 -294 91 -296 87z"/>
<path d="M9296 4831 c-2 -3 -7 -20 -10 -37 l-7 -31 148 -47 c287 -92 578 -184
600 -191 19 -5 25 -1 33 21 6 15 9 33 6 39 -2 6 -44 23 -92 38 -49 15 -221 69
-382 121 -161 51 -294 91 -296 87z"/>
<path d="M2831 4618 c-6 -17 -9 -33 -7 -35 4 -4 707 -228 747 -238 22 -6 27
-2 36 29 l11 35 -62 20 c-33 11 -162 52 -286 91 -124 39 -266 85 -315 101 -50
16 -95 29 -102 29 -6 0 -16 -14 -22 -32z"/>
<path d="M9231 4618 c-6 -17 -9 -33 -7 -35 4 -4 707 -228 747 -238 22 -6 27
-2 36 29 l11 35 -62 20 c-33 11 -162 52 -286 91 -124 39 -266 85 -315 101 -50
16 -95 29 -102 29 -6 0 -16 -14 -22 -32z"/>
<path d="M0 4282 l0 -41 55 -6 c82 -11 181 -62 241 -127 84 -89 115 -164 115
-283 1 -170 -88 -309 -244 -380 -31 -15 -82 -29 -112 -32 l-55 -6 0 -38 c0
-38 1 -39 38 -39 168 1 367 150 427 320 108 305 -89 625 -409 665 l-56 7 0
-40z"/>
<path d="M6320 4314 c-14 -3 -52 -14 -85 -26 -256 -89 -392 -370 -304 -627 52
-150 188 -276 344 -317 64 -18 186 -18 250 0 151 40 291 166 340 306 46 130
39 265 -20 386 -60 123 -158 212 -283 255 -55 19 -191 32 -242 23z m255 -118
c154 -76 236 -205 236 -371 1 -172 -87 -307 -247 -382 -53 -25 -70 -28 -164
-28 -97 0 -110 2 -173 32 -312 148 -322 580 -16 743 75 40 126 50 219 44 59
-3 90 -11 145 -38z"/>
<path d="M12720 4313 c-14 -2 -52 -13 -85 -25 -298 -104 -424 -465 -255 -729
83 -128 250 -228 383 -229 36 0 37 1 37 39 l0 38 -56 6 c-79 8 -174 56 -237
119 -201 201 -143 533 114 662 37 19 91 36 123 40 l56 7 0 40 c0 42 -6 44 -80
32z"/>
<path d="M1487 3613 c-30 -50 -326 -727 -320 -732 4 -4 20 -12 34 -18 l26 -11
163 361 c90 199 165 365 167 369 2 4 -10 14 -26 23 -34 17 -38 18 -44 8z"/>
<path d="M7887 3613 c-30 -50 -326 -727 -320 -732 4 -4 20 -12 34 -18 l26 -11
163 361 c90 199 165 365 167 369 2 4 -10 14 -26 23 -34 17 -38 18 -44 8z"/>
<path d="M1500 3183 c-89 -197 -164 -363 -167 -369 -4 -11 64 -41 71 -32 6 7
319 704 323 719 4 14 -32 39 -56 39 -5 0 -82 -161 -171 -357z"/>
<path d="M7900 3183 c-89 -197 -164 -363 -167 -369 -4 -11 64 -41 71 -32 6 7
319 704 323 719 4 14 -32 39 -56 39 -5 0 -82 -161 -171 -357z"/>
<path d="M4925 3432 c-55 -54 -184 -179 -287 -278 l-187 -180 24 -29 23 -30
113 108 c63 58 195 185 294 281 l180 174 -24 26 c-14 14 -27 26 -30 26 -3 0
-51 -44 -106 -98z"/>
<path d="M11325 3432 c-55 -54 -184 -179 -287 -278 l-187 -180 24 -29 23 -30
113 108 c63 58 195 185 294 281 l180 174 -24 26 c-14 14 -27 26 -30 26 -3 0
-51 -44 -106 -98z"/>
<path d="M1811 3408 c-243 -539 -301 -669 -301 -677 0 -8 60 -35 66 -29 2 3
286 629 314 694 l18 41 -34 17 -35 16 -28 -62z"/>
<path d="M8211 3408 c-243 -539 -301 -669 -301 -677 0 -8 60 -35 66 -29 2 3
286 629 314 694 l18 41 -34 17 -35 16 -28 -62z"/>
<path d="M3384 3435 c-267 -58 -441 -329 -380 -589 70 -296 371 -461 657 -361
111 40 219 142 276 261 32 67 37 87 41 175 4 76 0 116 -13 165 -47 173 -210
321 -389 353 -75 14 -115 13 -192 -4z m190 -80 c127 -27 224 -104 284 -223 36
-73 37 -80 37 -181 0 -98 -2 -111 -31 -171 -46 -95 -101 -153 -192 -197 -74
-37 -79 -38 -187 -38 -99 0 -116 3 -168 27 -120 56 -214 179 -238 311 -32 173
64 358 226 438 98 48 163 56 269 34z"/>
<path d="M9784 3435 c-267 -58 -441 -329 -380 -589 70 -296 371 -461 657 -361
111 40 219 142 276 261 32 67 37 87 41 175 4 76 0 116 -13 165 -47 173 -210
321 -389 353 -75 14 -115 13 -192 -4z m190 -80 c127 -27 224 -104 284 -223 36
-73 37 -80 37 -181 0 -98 -2 -111 -31 -171 -46 -95 -101 -153 -192 -197 -74
-37 -79 -38 -187 -38 -99 0 -116 3 -168 27 -120 56 -214 179 -238 311 -32 173
64 358 226 438 98 48 163 56 269 34z"/>
<path d="M4880 3124 c-157 -151 -287 -279 -289 -285 -2 -6 7 -21 20 -35 l22
-24 71 67 c39 38 171 165 294 283 l223 216 -28 26 -28 27 -285 -275z"/>
<path d="M11280 3124 c-157 -151 -287 -279 -289 -285 -2 -6 7 -21 20 -35 l22
-24 71 67 c39 38 171 165 294 283 l223 216 -28 26 -28 27 -285 -275z"/>
<path d="M1850 3033 c-89 -197 -163 -364 -164 -371 0 -7 14 -20 32 -27 32 -14
32 -14 46 18 7 18 80 178 161 357 81 179 149 330 152 337 4 9 -43 43 -60 43
-3 0 -78 -161 -167 -357z"/>
<path d="M8250 3033 c-89 -197 -163 -364 -164 -371 0 -7 14 -20 32 -27 32 -14
32 -14 46 18 7 18 80 178 161 357 81 179 149 330 152 337 4 9 -43 43 -60 43
-3 0 -78 -161 -167 -357z"/>
<path d="M2021 2949 c-89 -198 -160 -366 -158 -373 5 -12 55 -31 63 -24 7 7
324 716 324 725 0 9 -42 33 -59 33 -4 0 -80 -162 -170 -361z"/>
<path d="M8421 2949 c-89 -198 -160 -366 -158 -373 5 -12 55 -31 63 -24 7 7
324 716 324 725 0 9 -42 33 -59 33 -4 0 -80 -162 -170 -361z"/>
<path d="M5040 3014 c-140 -135 -271 -261 -290 -280 l-35 -34 27 -27 27 -26
166 159 c91 87 223 214 293 281 l127 121 -24 26 c-14 14 -27 26 -30 26 -3 0
-121 -111 -261 -246z"/>
<path d="M11440 3014 c-140 -135 -271 -261 -290 -280 l-35 -34 27 -27 27 -26
166 159 c91 87 223 214 293 281 l127 121 -24 26 c-14 14 -27 26 -30 26 -3 0
-121 -111 -261 -246z"/>
<path d="M5142 2848 l-292 -281 27 -29 27 -28 90 88 c50 48 180 173 289 278
108 105 197 196 197 201 0 5 -10 19 -23 31 l-23 21 -292 -281z"/>
<path d="M11542 2848 l-292 -281 27 -29 27 -28 90 88 c50 48 180 173 289 278
108 105 197 196 197 201 0 5 -10 19 -23 31 l-23 21 -292 -281z"/>
<path d="M5277 2714 c-158 -152 -287 -280 -287 -284 0 -3 11 -17 25 -30 l25
-24 108 105 c59 58 189 183 288 280 l182 174 -22 28 c-12 15 -24 27 -27 27 -3
0 -135 -124 -292 -276z"/>
<path d="M11677 2714 c-158 -152 -287 -280 -287 -284 0 -3 11 -17 25 -30 l25
-24 108 105 c59 58 189 183 288 280 l182 174 -22 28 c-12 15 -24 27 -27 27 -3
0 -135 -124 -292 -276z"/>
<path d="M6015 2444 c-132 -169 -241 -311 -242 -318 -3 -15 618 -501 626 -489
3 5 113 145 244 310 130 166 237 305 236 310 0 7 -602 484 -618 490 -3 2 -114
-135 -246 -303z m505 3 c135 -106 245 -199 245 -206 0 -16 -377 -500 -388
-498 -5 1 -120 90 -256 197 -245 192 -248 195 -232 217 54 74 377 482 381 482
3 1 115 -86 250 -192z"/>
<path d="M12415 2444 c-132 -169 -241 -311 -242 -318 -2 -9 592 -484 618 -494
5 -2 9 27 9 65 0 45 -3 63 -9 54 -7 -11 -13 -12 -23 -4 -7 5 -121 95 -253 198
-132 103 -241 189 -242 189 -1 1 82 107 184 236 102 129 191 244 199 254 13
19 16 17 73 -27 33 -26 62 -47 65 -47 3 0 6 20 6 45 0 43 -2 46 -69 100 -39
30 -71 55 -73 55 -2 0 -111 -138 -243 -306z"/>
<path d="M0 2591 l0 -49 182 -144 c100 -79 183 -148 185 -153 2 -6 -80 -116
-182 -245 l-185 -235 0 -57 c0 -32 2 -58 4 -58 8 0 476 598 475 607 0 4 -108
92 -240 195 l-239 188 0 -49z"/>
<path d="M2907 1963 c-3 -5 -91 -155 -196 -335 -105 -179 -193 -332 -196 -340
-5 -12 51 -56 59 -46 2 1 94 158 205 348 l202 345 -22 18 c-22 18 -45 22 -52
10z"/>
<path d="M9307 1963 c-3 -5 -91 -155 -196 -335 -105 -179 -193 -332 -196 -340
-5 -12 51 -56 59 -46 2 1 94 158 205 348 l202 345 -22 18 c-22 18 -45 22 -52
10z"/>
<path d="M3066 1858 c-7 -13 -91 -156 -186 -318 -95 -162 -181 -309 -191 -327
l-20 -32 32 -16 c21 -11 35 -13 41 -7 6 6 99 162 208 348 l198 338 -29 18
c-37 22 -36 23 -53 -4z"/>
<path d="M9466 1858 c-7 -13 -91 -156 -186 -318 -95 -162 -181 -309 -191 -327
l-20 -32 32 -16 c21 -11 35 -13 41 -7 6 6 99 162 208 348 l198 338 -29 18
c-37 22 -36 23 -53 -4z"/>
<path d="M3041 1439 c-112 -192 -202 -351 -200 -352 25 -18 61 -38 64 -35 8
10 395 676 400 689 4 10 -3 20 -22 29 -15 8 -30 15 -33 17 -3 1 -97 -155 -209
-348z"/>
<path d="M9441 1439 c-112 -192 -202 -351 -200 -352 25 -18 61 -38 64 -35 8
10 395 676 400 689 4 10 -3 20 -22 29 -15 8 -30 15 -33 17 -3 1 -97 -155 -209
-348z"/>
<path d="M909 1649 c-90 -61 -167 -114 -171 -118 -4 -3 3 -19 15 -35 l23 -29
112 77 112 77 -1 -58 c0 -32 -4 -111 -7 -176 -4 -64 -6 -117 -4 -117 1 0 66
43 144 95 78 52 143 93 144 92 1 -1 -2 -76 -7 -166 -6 -89 -9 -167 -7 -172 2
-5 68 34 147 87 l143 96 -6 -139 c-4 -76 -9 -155 -13 -177 -4 -31 -2 -37 8
-30 8 4 74 48 147 97 74 49 135 87 136 85 2 -2 0 -61 -5 -133 -4 -71 -5 -133
-3 -137 3 -4 20 -8 38 -8 l33 0 7 148 c3 81 9 178 13 216 l6 68 -134 -89 c-74
-49 -140 -93 -148 -98 -11 -6 -12 20 -6 164 4 94 4 171 1 171 -4 0 -68 -41
-141 -92 -74 -50 -137 -90 -139 -87 -3 2 -1 78 5 168 5 91 7 166 5 168 -2 3
-66 -37 -141 -87 -75 -50 -139 -89 -142 -86 -3 3 -1 79 3 170 5 92 6 166 3
166 -3 0 -79 -50 -170 -111z"/>
<path d="M7309 1649 c-90 -61 -167 -114 -171 -118 -4 -3 3 -19 15 -35 l23 -29
112 77 112 77 -1 -58 c0 -32 -4 -111 -7 -176 -4 -64 -6 -117 -4 -117 1 0 66
43 144 95 78 52 143 93 144 92 1 -1 -2 -76 -7 -166 -6 -89 -9 -167 -7 -172 2
-5 66 33 143 85 126 85 140 92 143 73 2 -12 -1 -89 -6 -172 -6 -82 -9 -151 -8
-152 1 -1 66 41 145 93 79 53 144 94 145 92 2 -2 0 -61 -5 -133 -4 -71 -5
-133 -3 -137 3 -4 20 -8 38 -8 l33 0 7 148 c3 81 9 178 13 216 l6 68 -134 -89
c-74 -49 -140 -93 -148 -98 -11 -6 -12 20 -6 164 4 94 4 171 1 171 -4 0 -68
-41 -141 -92 -74 -50 -137 -90 -139 -87 -3 2 -1 78 5 168 5 91 7 166 5 168 -2
3 -66 -37 -141 -87 -75 -50 -139 -89 -142 -86 -3 3 -1 79 3 170 5 92 6 166 3
166 -3 0 -79 -50 -170 -111z"/>
<path d="M3403 1678 c-4 -7 -96 -164 -204 -348 l-197 -335 30 -19 c20 -13 32
-16 40 -8 6 6 99 163 208 349 l198 338 -26 17 c-32 21 -38 22 -49 6z"/>
<path d="M9803 1678 c-4 -7 -96 -164 -204 -348 l-197 -335 30 -19 c20 -13 32
-16 40 -8 5 5 99 162 208 348 l198 339 -27 17 c-31 21 -37 22 -48 6z"/>
<path d="M3371 1249 c-112 -192 -202 -351 -200 -352 25 -18 61 -38 63 -35 8 9
397 678 401 690 4 9 -5 20 -22 28 -15 8 -30 16 -33 17 -3 1 -97 -155 -209
-348z"/>
<path d="M9771 1249 c-112 -192 -202 -351 -200 -352 25 -18 61 -38 63 -35 8 9
397 678 401 690 4 9 -5 20 -22 28 -15 8 -30 16 -33 17 -3 1 -97 -155 -209
-348z"/>
<path d="M4203 1266 c-57 -96 -103 -178 -103 -183 0 -5 13 -16 29 -26 l28 -17
67 115 c37 63 71 115 74 115 4 0 25 -44 46 -98 22 -53 52 -124 66 -157 l26
-59 84 139 c45 77 86 144 90 148 4 4 35 -61 70 -145 35 -84 66 -156 69 -160 3
-4 44 58 91 138 47 79 88 144 91 144 3 0 34 -70 68 -155 35 -85 66 -155 70
-155 3 0 44 66 90 145 47 80 88 142 91 138 4 -5 28 -61 55 -125 26 -65 51
-118 56 -118 25 0 59 25 54 39 -25 73 -151 371 -157 371 -3 0 -43 -63 -88
-140 -45 -77 -86 -140 -90 -140 -4 0 -35 70 -70 155 -34 85 -66 153 -70 150
-4 -2 -45 -68 -90 -146 -45 -77 -86 -137 -90 -132 -4 4 -31 66 -60 138 -29 71
-57 139 -63 152 -9 21 -17 11 -95 -120 -47 -78 -87 -144 -89 -147 -7 -8 -20
20 -79 167 -32 79 -60 143 -63 143 -4 0 -52 -79 -108 -174z"/>
<path d="M10603 1266 c-57 -96 -103 -178 -103 -183 0 -5 13 -16 29 -26 l28
-17 67 115 c37 63 71 115 74 115 4 0 25 -44 46 -98 22 -53 52 -124 66 -157
l26 -59 84 139 c45 77 86 144 90 148 4 4 35 -61 70 -145 35 -84 66 -156 69
-160 3 -4 44 58 91 138 47 79 88 144 91 144 3 0 34 -70 68 -155 35 -85 66
-155 70 -155 3 0 44 66 90 145 47 80 88 142 91 138 4 -5 28 -61 55 -125 26
-65 51 -118 56 -118 25 0 59 25 54 39 -25 73 -151 371 -157 371 -3 0 -43 -63
-88 -140 -45 -77 -86 -140 -90 -140 -4 0 -35 70 -70 155 -34 85 -66 153 -70
150 -4 -2 -45 -68 -90 -146 -45 -77 -86 -137 -90 -132 -4 4 -31 67 -60 138
-29 72 -57 140 -64 152 -10 19 -18 9 -96 -123 -47 -79 -88 -144 -91 -144 -4 0
-35 70 -70 155 -35 85 -66 155 -69 155 -3 0 -51 -79 -107 -174z"/>
<path d="M171 1347 c-11 -13 -21 -27 -20 -33 0 -5 85 -83 190 -173 104 -90
189 -166 189 -170 0 -3 -74 -91 -165 -194 -91 -104 -165 -192 -165 -196 0 -4
11 -18 25 -31 l25 -23 38 44 c264 302 352 405 350 411 -3 7 -418 371 -436 382
-5 3 -19 -5 -31 -17z"/>
<path d="M6571 1347 c-11 -13 -21 -27 -20 -33 0 -5 85 -83 190 -173 104 -90
189 -166 189 -170 0 -3 -74 -91 -165 -194 -91 -104 -165 -192 -165 -196 0 -4
11 -18 25 -31 l25 -23 38 44 c264 302 352 405 350 411 -3 7 -418 371 -436 382
-5 3 -19 -5 -31 -17z"/>
<path d="M6371 1336 c-13 -14 -22 -29 -20 -34 2 -5 88 -83 192 -172 103 -90
187 -166 187 -170 0 -4 -74 -92 -165 -196 -91 -104 -165 -191 -165 -195 0 -3
11 -16 25 -29 22 -21 27 -22 39 -9 69 72 376 433 374 439 -2 6 -374 332 -429
377 -13 11 -20 8 -38 -11z"/>
<path d="M12772 1337 c-28 -30 -28 -41 3 -61 l25 -16 0 50 c0 27 -1 50 -3 50
-2 0 -13 -10 -25 -23z"/>
<path d="M0 1302 l0 -49 165 -143 c91 -79 165 -146 165 -150 0 -4 -74 -92
-165 -196 -91 -104 -165 -191 -165 -195 0 -3 11 -16 25 -29 22 -21 27 -22 39
-9 69 72 376 433 374 439 -3 8 -408 363 -427 375 -7 4 -11 -11 -11 -43z"/>
<path d="M6169 1319 l-23 -32 26 -21 c96 -79 358 -312 358 -319 0 -7 -213
-256 -308 -359 l-26 -28 24 -25 c13 -14 27 -25 31 -25 9 0 389 437 388 447 0
7 -303 274 -414 366 l-33 27 -23 -31z"/>
<path d="M12569 1319 c-18 -26 -19 -33 -8 -43 8 -7 65 -57 127 -110 l112 -98
-1 54 0 53 -71 60 c-38 33 -85 72 -103 88 l-33 27 -23 -31z"/>
<path d="M5969 1304 l-24 -26 30 -25 c17 -14 105 -91 197 -172 l168 -145 -29
-31 c-15 -16 -92 -104 -170 -193 l-143 -164 23 -24 c12 -13 26 -24 31 -24 8 0
381 424 386 439 3 9 -426 391 -438 391 -4 0 -17 -12 -31 -26z"/>
<path d="M12369 1304 l-24 -26 30 -25 c17 -14 105 -91 197 -172 l168 -145 -29
-31 c-15 -16 -92 -104 -170 -193 l-143 -164 23 -24 c12 -13 26 -24 30 -24 5 0
85 88 179 195 170 194 170 194 170 243 l0 48 -194 169 c-107 93 -199 171 -204
173 -4 1 -19 -9 -33 -24z"/>
<path d="M5772 1297 c-12 -13 -22 -26 -22 -28 0 -3 88 -82 195 -174 169 -147
192 -171 181 -185 -8 -8 -84 -96 -170 -194 l-156 -180 27 -28 c15 -15 30 -25
34 -21 59 64 379 438 379 444 0 8 -424 382 -438 387 -5 1 -18 -8 -30 -21z"/>
<path d="M12172 1297 c-12 -13 -22 -26 -22 -28 0 -3 88 -82 195 -174 169 -147
192 -171 181 -185 -8 -8 -84 -96 -170 -194 l-156 -180 27 -28 c15 -15 30 -25
34 -21 59 64 379 438 379 444 0 8 -424 382 -438 387 -5 1 -18 -8 -30 -21z"/>
<path d="M1 1118 c0 -53 0 -53 65 -107 35 -30 64 -59 64 -64 0 -5 -29 -42 -66
-82 l-65 -73 3 -57 3 -56 117 135 c65 74 118 137 118 140 0 6 -20 25 -157 145
l-83 73 1 -54z"/>
<path d="M0 940 l0 -44 22 22 22 22 -22 22 -22 22 0 -44z"/>
<path d="M12785 776 c-5 -8 -50 -60 -99 -116 l-89 -101 27 -27 27 -27 50 55
c97 107 100 112 97 174 -2 41 -6 53 -13 42z"/>
<path d="M975 378 c-144 -27 -285 -136 -349 -271 -47 -96 -46 -107 2 -107 36
0 38 2 70 69 127 264 476 317 675 102 31 -34 64 -83 78 -115 22 -54 24 -56 61
-56 49 0 49 15 2 110 -100 200 -321 310 -539 268z"/>
<path d="M5230 202 c-80 -101 -146 -188 -148 -193 -2 -5 17 -9 42 -9 l46 0 87
112 c49 62 99 124 113 140 l25 27 175 -139 175 -139 64 -1 c35 0 62 2 60 3
-27 23 -477 374 -484 378 -5 4 -75 -77 -155 -179z"/>
<path d="M7375 378 c-144 -27 -285 -136 -349 -271 -47 -96 -46 -107 2 -107 36
0 38 2 70 69 127 264 476 317 675 102 31 -34 64 -83 78 -115 22 -54 24 -56 61
-56 49 0 49 15 2 110 -100 200 -321 310 -539 268z"/>
<path d="M11630 202 c-80 -101 -146 -188 -148 -193 -2 -5 17 -9 42 -9 l46 0
87 112 c49 62 99 124 113 140 l25 27 175 -139 175 -139 64 -1 c35 0 62 2 60 3
-27 23 -477 374 -484 378 -5 4 -75 -77 -155 -179z"/>
<path d="M2380 209 c-195 -89 -357 -163 -358 -164 -2 -2 -1 -13 3 -24 14 -45
64 -29 416 130 184 83 336 152 338 155 7 7 -22 64 -33 64 -6 0 -171 -73 -366
-161z"/>
<path d="M8780 209 c-195 -89 -357 -163 -358 -164 -2 -2 -1 -13 3 -24 14 -45
64 -29 416 130 184 83 336 152 338 155 7 7 -22 64 -33 64 -6 0 -171 -73 -366
-161z"/>
<path d="M4436 180 c-64 -93 -116 -172 -116 -175 0 -3 20 -5 43 -5 l44 0 101
149 c56 82 102 154 102 159 0 9 -43 42 -54 42 -3 0 -57 -76 -120 -170z"/>
<path d="M10836 180 c-64 -93 -116 -172 -116 -175 0 -3 20 -5 43 -5 l44 0 101
149 c56 82 102 154 102 159 0 9 -43 42 -54 42 -3 0 -57 -76 -120 -170z"/>
<path d="M4347 302 c-19 -22 -197 -290 -197 -297 0 -3 20 -5 43 -5 l44 0 75
112 c41 62 82 125 91 139 16 25 16 26 -12 47 -27 20 -30 20 -44 4z"/>
<path d="M10747 302 c-19 -22 -197 -290 -197 -297 0 -3 20 -5 43 -5 l44 0 75
112 c41 62 82 125 91 139 16 25 16 26 -12 47 -27 20 -30 20 -44 4z"/>
<path d="M4129 233 c-18 -27 -61 -90 -96 -140 l-64 -93 48 0 48 1 78 114 c42
62 77 118 77 122 0 5 -13 16 -29 26 l-30 17 -32 -47z"/>
<path d="M10529 233 c-18 -27 -61 -90 -96 -140 l-64 -93 48 0 48 1 78 114 c42
62 77 118 77 122 0 5 -13 16 -29 26 l-30 17 -32 -47z"/>
<path d="M3880 120 l-80 -120 47 0 48 0 67 102 67 102 -27 18 c-15 10 -30 18
-34 18 -4 0 -44 -54 -88 -120z"/>
<path d="M10280 120 l-80 -120 47 0 48 0 67 102 67 102 -27 18 c-15 10 -30 18
-34 18 -4 0 -44 -54 -88 -120z"/>
<path d="M3708 118 c-36 -51 -68 -99 -72 -105 -5 -10 5 -13 38 -13 44 0 45 0
100 80 31 44 56 81 56 84 0 3 -13 14 -29 25 l-29 21 -64 -92z"/>
<path d="M10108 118 c-36 -51 -68 -99 -72 -105 -5 -10 5 -13 38 -13 44 0 45 0
100 80 31 44 56 81 56 84 0 3 -13 14 -29 25 l-29 21 -64 -92z"/>
<path d="M2603 102 l-213 -97 89 -3 89 -3 142 65 c78 36 144 67 147 70 9 9
-18 66 -31 65 -6 0 -107 -44 -223 -97z"/>
<path d="M9003 102 l-213 -97 89 -3 89 -3 142 65 c78 36 144 67 147 70 9 9
-18 66 -31 65 -6 0 -107 -44 -223 -97z"/>
<path d="M2875 15 l-30 -14 42 -1 c34 0 41 3 37 15 -7 18 -10 18 -49 0z"/>
<path d="M9275 15 l-30 -14 42 -1 c34 0 41 3 37 15 -7 18 -10 18 -49 0z"/>
</g>
</svg>
